<?xml version="1.0" standalone="no"?>
<!DOCTYPE svg PUBLIC "-//W3C//DTD SVG 20010904//EN"
 "http://www.w3.org/TR/2001/REC-SVG-20010904/DTD/svg10.dtd">
<svg version="1.0" xmlns="http://www.w3.org/2000/svg"
 width="700.000000pt" height="700.000000pt" viewBox="0 0 700.000000 700.000000"
 preserveAspectRatio="xMidYMid meet">
<metadata>
Created by potrace 1.14, written by Peter Selinger 2001-2017
</metadata>
<g transform="translate(0.000000,700.000000) scale(0.100000,-0.100000)"
fill="#000000" stroke="none">
<path d="M2408 6550 c-2 -8 -3 -205 -2 -437 0 -293 -3 -423 -10 -424 -6 0
-166 -1 -356 -1 -246 -1 -359 -5 -394 -14 -164 -43 -295 -181 -324 -342 -5
-30 -10 -190 -10 -355 0 -166 -1 -320 -1 -342 l-1 -41 -435 1 c-428 0 -435 0
-436 -20 -4 -109 -3 -393 2 -405 6 -13 64 -15 438 -15 427 1 431 1 432 -20 0
-27 1 -1244 0 -1270 -1 -20 -6 -21 -436 -20 -283 0 -435 -3 -436 -10 -5 -55
-3 -404 2 -415 6 -13 64 -15 438 -14 l431 0 1 -35 c0 -20 1 -175 1 -346 0
-172 4 -332 10 -360 34 -167 177 -309 343 -343 28 -5 194 -10 370 -11 176 0
332 0 346 -1 l25 0 0 -435 c-1 -380 1 -435 14 -436 100 -7 406 -2 414 7 8 7
11 146 10 437 l0 427 80 1 c391 3 1219 0 1224 -6 4 -4 7 -198 7 -431 1 -302 4
-427 12 -432 13 -8 405 -8 418 0 6 4 10 172 9 432 0 235 3 429 8 432 4 3 158
5 340 6 183 0 357 4 386 8 146 24 280 138 335 288 21 57 25 169 27 718 l0 80
427 0 c291 -1 430 2 437 10 11 11 14 403 3 420 -3 5 -194 9 -436 9 -380 0
-431 1 -431 15 -1 8 -1 205 -1 436 l0 422 -220 1 -219 0 0 -984 0 -985 -1750
0 -1750 0 0 1750 0 1750 984 0 985 0 -1 219 0 218 -401 1 c-221 0 -418 1 -438
1 l-35 1 0 431 c1 251 -3 433 -8 437 -5 3 -103 6 -217 6 -177 1 -208 -1 -211
-14z"/>
<path d="M5678 6566 c-1 -2 -36 -6 -77 -10 -432 -37 -775 -406 -786 -846 -4
-142 44 -344 101 -424 8 -11 14 -26 14 -34 0 -7 -145 -158 -322 -335 l-322
-322 -930 -2 c-512 0 -935 -1 -941 -2 -14 -1 -14 -2181 0 -2182 6 -1 495 -2
1088 -3 702 0 1081 2 1085 9 3 5 6 429 7 941 l0 930 322 322 c177 177 327 322
333 322 6 0 30 -11 53 -23 160 -89 402 -117 596 -67 346 88 588 356 656 725
17 97 2 269 -36 392 -100 324 -411 575 -744 599 -38 3 -75 7 -82 9 -6 2 -13 2
-15 1z m138 -461 c54 -15 153 -76 191 -117 91 -97 135 -253 107 -384 -28 -136
-114 -247 -242 -310 -73 -36 -83 -38 -172 -39 -113 0 -179 19 -260 74 -69 47
-141 142 -166 218 -29 89 -26 220 8 301 89 214 311 321 534 257z m-1661 -2605
l0 -655 -645 -1 c-355 0 -650 1 -656 3 -7 3 -10 205 -8 656 0 359 2 652 3 652
0 0 295 0 654 0 l652 0 0 -655z"/>
</g>
</svg>
